<svg xmlns="http://www.w3.org/2000/svg" width="297mm" height="210mm" viewBox="0 0 297 210">
<rect width="100%" height="100%" fill="white"/>
<rect x="23.5" y="17.5" width="25" height="25" fill="black"/>
<rect x="73.5" y="17.5" width="25" height="25" fill="black"/>
<rect x="123.5" y="17.5" width="25" height="25" fill="black"/>
<rect x="173.5" y="17.5" width="25" height="25" fill="black"/>
<rect x="223.5" y="17.5" width="25" height="25" fill="black"/>
<rect x="48.5" y="42.5" width="25" height="25" fill="black"/>
<rect x="98.5" y="42.5" width="25" height="25" fill="black"/>
<rect x="148.5" y="42.5" width="25" height="25" fill="black"/>
<rect x="198.5" y="42.5" width="25" height="25" fill="black"/>
<rect x="248.5" y="42.5" width="25" height="25" fill="black"/>
<rect x="23.5" y="67.5" width="25" height="25" fill="black"/>
<rect x="73.5" y="67.5" width="25" height="25" fill="black"/>
<rect x="123.5" y="67.5" width="25" height="25" fill="black"/>
<rect x="173.5" y="67.5" width="25" height="25" fill="black"/>
<rect x="223.5" y="67.5" width="25" height="25" fill="black"/>
<rect x="48.5" y="92.5" width="25" height="25" fill="black"/>
<rect x="98.5" y="92.5" width="25" height="25" fill="black"/>
<rect x="148.5" y="92.5" width="25" height="25" fill="black"/>
<rect x="198.5" y="92.5" width="25" height="25" fill="black"/>
<rect x="248.5" y="92.5" width="25" height="25" fill="black"/>
<rect x="23.5" y="117.5" width="25" height="25" fill="black"/>
<rect x="73.5" y="117.5" width="25" height="25" fill="black"/>
<rect x="123.5" y="117.5" width="25" height="25" fill="black"/>
<rect x="173.5" y="117.5" width="25" height="25" fill="black"/>
<rect x="223.5" y="117.5" width="25" height="25" fill="black"/>
<rect x="48.5" y="142.5" width="25" height="25" fill="black"/>
<rect x="98.5" y="142.5" width="25" height="25" fill="black"/>
<rect x="148.5" y="142.5" width="25" height="25" fill="black"/>
<rect x="198.5" y="142.5" width="25" height="25" fill="black"/>
<rect x="248.5" y="142.5" width="25" height="25" fill="black"/>
<rect x="23.5" y="167.5" width="25" height="25" fill="black"/>
<rect x="73.5" y="167.5" width="25" height="25" fill="black"/>
<rect x="123.5" y="167.5" width="25" height="25" fill="black"/>
<rect x="173.5" y="167.5" width="25" height="25" fill="black"/>
<rect x="223.5" y="167.5" width="25" height="25" fill="black"/>
<rect x="23.5" y="17.5" width="250" height="175" fill="none" stroke="black" stroke-width="0.2"/>
</svg>